<svg id="OBJECTS" xmlns="http://www.w3.org/2000/svg" xmlns:xlink="http://www.w3.org/1999/xlink" viewBox="0 0 760.18 438.8"><defs><style>.cls-1,.cls-15,.cls-16,.cls-17,.cls-18,.cls-19,.cls-20,.cls-21,.cls-22,.cls-24,.cls-25,.cls-27,.cls-35,.cls-36,.cls-38,.cls-50,.cls-51,.cls-52,.cls-9{fill:none;}.cls-2{clip-path:url(#clip-path);}.cls-3{fill:#faf8d2;}.cls-4{fill:#efebc2;}.cls-5{fill:#779929;}.cls-6{fill:#adbc3c;}.cls-7{fill:#fffeee;}.cls-8{fill:#c3d278;}.cls-9{stroke:#9ab12d;}.cls-35,.cls-36,.cls-38,.cls-50,.cls-51,.cls-52,.cls-9{stroke-linecap:round;stroke-linejoin:round;}.cls-10{fill:#dbea90;}.cls-11,.cls-39{fill:#9ab12d;}.cls-12,.cls-13{fill:#b6c453;}.cls-13{opacity:0.36;}.cls-14{fill:#637c1e;}.cls-15,.cls-22{stroke:#779929;}.cls-15,.cls-16,.cls-17,.cls-18,.cls-19,.cls-20,.cls-21,.cls-22,.cls-24,.cls-25,.cls-27{stroke-miterlimit:10;}.cls-15{stroke-width:0.75px;}.cls-16,.cls-17,.cls-18,.cls-19,.cls-20,.cls-21,.cls-24,.cls-25,.cls-27{stroke:#dbea90;}.cls-16{stroke-width:1.08px;}.cls-17{stroke-width:0.86px;}.cls-18{stroke-width:1.22px;}.cls-19{stroke-width:0.78px;}.cls-20{stroke-width:0.62px;}.cls-21{stroke-width:0.88px;}.cls-22{stroke-width:0.46px;}.cls-23{fill:#85a328;}.cls-24{stroke-width:0.46px;}.cls-25{stroke-width:0.37px;}.cls-26{fill:#abbc30;}.cls-27{stroke-width:0.52px;}.cls-28{fill:#6a8424;}.cls-29{fill:#f46640;}.cls-30{fill:#ffb38f;}.cls-31{fill:#004238;}.cls-32{fill:#013028;}.cls-33{fill:#e15f3d;}.cls-34{fill:#eb8c6c;fill-opacity:0.35;}.cls-35,.cls-50{stroke:#013028;}.cls-35{stroke-width:0.58px;}.cls-36,.cls-51{stroke:#eb8c6c;}.cls-36{stroke-opacity:0.35;stroke-width:0.33px;}.cls-37{fill:#fafafa;}.cls-38,.cls-52{stroke:#fafafa;}.cls-38{stroke-width:0.18px;}.cls-39{opacity:0.26;}.cls-40{fill:#e58720;}.cls-41{fill:#20201e;}.cls-42{fill:#004c3f;}.cls-43{fill:#ce884c;}.cls-44{fill:#e8a45d;}.cls-45{fill:#fff;}.cls-46{fill:#ffb74d;}.cls-47,.cls-48,.cls-55{fill:#ed9529;}.cls-48{opacity:0.51;}.cls-49{fill:#04383d;}.cls-50{stroke-width:0.62px;}.cls-51{stroke-width:0.41px;}.cls-52{stroke-width:0.21px;}.cls-53{fill:#ffba5f;}.cls-54{fill:#ee534e;}.cls-55{opacity:0.42;}.cls-56{fill:#fcb85e;}.cls-57{fill:#ffcc80;}</style><clipPath id="clip-path" transform="translate(0 -84.74)"><path class="cls-1" d="M750,98V492.77c0,4-3.7,7.23-8.27,7.23H8.27C3.7,500,0,496.76,0,492.77V436.94c69.66-14.13,161,68,223-12.52,44.69-58,25.66-132.81,93.49-154.52C356.84,257,415,251.79,441.41,179c10.4-28.58,12.36-88.27,58.52-88.27h241.8C746.3,90.77,750,94,750,98Z"/></clipPath></defs><title>banner</title><g class="cls-2"><path class="cls-3" d="M750,98V492.77c0,4-3.7,7.23-8.27,7.23H8.27C3.7,500,0,496.76,0,492.77V98c0-4,3.7-7.24,8.27-7.24H741.73C746.3,90.77,750,94,750,98Z" transform="translate(0 -84.74)"/><rect class="cls-4" x="281.3" y="173.07" width="26.06" height="182.38"/><polygon class="cls-4" points="358.37 312.4 332.31 312.4 332.31 196.52 358.37 186.48 358.37 312.4"/><rect class="cls-4" x="294.33" y="228.13" width="61.85" height="127.33"/><rect class="cls-4" x="239.83" y="254.72" width="89.13" height="100.74"/><rect class="cls-4" x="329.02" y="245.67" width="79.3" height="109.78"/><rect class="cls-4" x="373.63" y="206.78" width="36.49" height="148.67"/><rect class="cls-4" x="390.81" y="154.9" width="38.62" height="173.57"/><rect class="cls-4" x="516.11" y="239.53" width="36.49" height="115.93"/><rect class="cls-4" x="496.87" y="212.81" width="24.54" height="142.65"/><rect class="cls-4" x="413.88" y="242.11" width="36.49" height="113.34"/><rect class="cls-4" x="463.39" y="261.12" width="36.49" height="94.33"/><polygon class="cls-4" points="481.63 355.45 445.15 355.45 445.15 206.78 481.63 224.13 481.63 355.45"/><path class="cls-5" d="M435.81,403.18c-20.84-7.2-46.77-5-70.71-3.35s-51,1.86-68.63-7.94c-9.2-5.13-14.58-12.46-24.57-17-9.21-4.22-21.29-5.57-32.91-5.6s-23.15,1.11-34.77,1.3C174.68,371,146,365.34,118,359.72a382.61,382.61,0,0,0-13.8,69.44l335.77-6.74c6.66-.14,31.81-.4,25.55-7.28-2.35-2.57-10.49-4-14.45-5.61C445.91,407.45,441.18,405,435.81,403.18Z" transform="translate(0 -84.74)"/><path class="cls-6" d="M542.52,418.92c-14.17-5.17-28-12.61-43.48-12.65-12,0-24,4.49-35.78,2.41-17.78-3.15-27.51-19.82-44.68-24.73-19-5.43-38.71,5.13-58.55,7.8-16.37,2.2-33.22-1.09-49.69.56-19.16,1.92-36.27,10.29-53.93,16.65s-38.25,10.73-56,4.52c-1.38,4.3-2.25,8.72-3.63,13H556c8.8,0,18.8,1.08,27.52,0,3.07-.39,6.49.21,2.45-3.31-4.44-3.86-13.42.47-19,.49C558.6,423.73,550.16,421.71,542.52,418.92Z" transform="translate(0 -84.74)"/><path class="cls-7" d="M553.81,197.38c-1.84-1.8-5.13-3-8.89-3a16.28,16.28,0,0,0-1.73.09,9.54,9.54,0,0,0-5-3.08c-1.38-4.78-8.31-8.42-16.68-8.42s-15.19,3.58-16.65,8.3a16.26,16.26,0,0,0-4-.49c-4.67,0-8.62,1.84-10,4.37a16.23,16.23,0,0,0-5-.77c-3.77,0-7.05,1.19-8.89,3Z" transform="translate(0 -84.74)"/><path class="cls-7" d="M480,164.06c-1.45-2.78-6.42-4.83-12.35-4.83a24,24,0,0,0-3.77.29c-2.14-2.07-6.4-3.49-11.32-3.49-.75,0-1.47,0-2.18.11-2.85-4.11-10.53-7.07-19.59-7.07-9.84,0-18.05,3.48-20.21,8.15-4.36.11-8.14,1.33-10.28,3.11a27,27,0,0,0-3.15-.18c-5.47,0-10.2,1.59-12.53,3.91Z" transform="translate(0 -84.74)"/><rect class="cls-8" y="331.84" width="750" height="106.96"/><line class="cls-9" x1="514.96" y1="396.05" x2="526.86" y2="396.05"/><line class="cls-9" x1="487.93" y1="389.99" x2="493.43" y2="389.99"/><line class="cls-9" x1="458.74" y1="396.05" x2="511.59" y2="396.05"/><line class="cls-9" x1="496.68" y1="389.99" x2="518.22" y2="389.99"/><line class="cls-9" x1="619.14" y1="340.81" x2="644.83" y2="340.81"/><line class="cls-9" x1="654.1" y1="340.81" x2="660.79" y2="340.81"/><line class="cls-9" x1="546.5" y1="362.74" x2="572.2" y2="362.74"/><line class="cls-9" x1="581.46" y1="362.74" x2="584.81" y2="362.74"/><line class="cls-9" x1="539.14" y1="362.74" x2="542.48" y2="362.74"/><line class="cls-9" x1="320.34" y1="379.38" x2="346.03" y2="379.38"/><line class="cls-9" x1="355.29" y1="379.38" x2="358.64" y2="379.38"/><line class="cls-9" x1="312.97" y1="379.38" x2="316.32" y2="379.38"/><line class="cls-9" x1="78.35" y1="385.82" x2="104.05" y2="385.82"/><line class="cls-9" x1="113.31" y1="385.82" x2="116.65" y2="385.82"/><line class="cls-9" x1="70.99" y1="385.82" x2="74.33" y2="385.82"/><rect class="cls-10" x="527.07" y="23.53" width="222.93" height="271.35"/><rect class="cls-5" x="472.96" y="319.52" width="277.05" height="12.32"/><rect class="cls-11" x="490.25" y="307.2" width="259.75" height="12.32"/><rect class="cls-6" x="509.11" y="294.87" width="240.9" height="12.32"/><rect class="cls-12" x="509.86" width="240.15" height="23.53"/><rect class="cls-13" x="557.25" y="75.55" width="32" height="8.82" rx="2"/><rect class="cls-13" x="557.67" y="191.46" width="32" height="8.82" rx="2"/><rect class="cls-13" x="579.78" y="110.64" width="14.24" height="8.82" rx="2"/><rect class="cls-13" x="562.73" y="274.54" width="14.24" height="8.82" rx="2"/><rect class="cls-13" x="694.24" y="77.52" width="14.24" height="8.82" rx="2"/><rect class="cls-13" x="731.33" y="31.4" width="14.24" height="8.82" rx="2"/><path class="cls-13" d="M527.07,56h6a2,2,0,0,1,2,2V62.8a2,2,0,0,1-2,2h-6a0,0,0,0,1,0,0V56A0,0,0,0,1,527.07,56Z"/><rect class="cls-13" x="539.96" y="143.47" width="14.24" height="8.82" rx="2"/><rect class="cls-13" x="728.82" y="176.42" width="14.24" height="8.82" rx="2"/><rect class="cls-13" x="656.33" y="66.94" width="32" height="8.82" rx="2"/><rect class="cls-11" x="639.74" y="90.43" width="92.1" height="204.44"/><rect class="cls-14" x="586.14" y="240.29" width="199.29" height="79.35" transform="translate(965.76 -490.56) rotate(90)"/><rect class="cls-11" x="581.99" y="175.18" width="4.63" height="204.44" transform="translate(1168.61 470.05) rotate(180)"/><rect class="cls-12" x="586.62" y="90.43" width="65.2" height="204.44"/><rect class="cls-15" x="592.95" y="197.71" width="52.55" height="88.34"/><rect class="cls-15" x="592.95" y="99.26" width="52.55" height="88.34"/><path class="cls-11" d="M598.83,277.39a3,3,0,1,1-2.94-2.56A2.77,2.77,0,0,1,598.83,277.39Z" transform="translate(0 -84.74)"/><path class="cls-11" d="M692.72,517.66c-2.83,1.33-5.63,3.23-8.84,3a11.89,11.89,0,0,1-6.19-2.76,42,42,0,0,1-10.3-11.06c-2.07-3.26-3.87-7-7.65-8.74s-8.77-.86-13-2c-4.67-1.29-7.93-4.95-10.43-8.63S631.66,479.8,628,477c-3.54-2.69-8.51-4.36-10.22-8.17-1.52-3.37.33-7.4,3.63-9.6s7.69-2.77,11.81-2.4a64.56,64.56,0,0,1,12,2.71,43.17,43.17,0,0,0,12.13,2.13c4.8,0,9.64-1.52,14.33-.59s8.27,4.06,11.16,7.36,5.36,6.95,9,9.65c4.34,3.24,10,4.85,14.52,7.85a22,22,0,0,1,9.6,13.68c.86,4.18.89,12.74-4.36,15-2.22,1-5.08.5-7.46.54A27.61,27.61,0,0,0,692.72,517.66Z" transform="translate(0 -84.74)"/><path class="cls-16" d="M710.82,514.81s-21.3-28.1-72.85-45.13" transform="translate(0 -84.74)"/><path class="cls-11" d="M748.44,506c2.43-.71,5.22-1.09,6.83-2.83a7.13,7.13,0,0,0,1.54-4.63,28.71,28.71,0,0,0-1.74-11.25c-1-2.82-2.55-5.77-1.65-8.63s4.2-4.91,5.73-7.68c1.69-3.07,1-6.72,0-10s-2.57-6.54-2.42-9.94,1.74-6.69.14-9.63c-1.42-2.6-5.11-3.86-8.36-3.39a13.56,13.56,0,0,0-8,4.68,38.85,38.85,0,0,0-4.72,7.56,26.48,26.48,0,0,1-5.2,7.3c-2.64,2.41-6.26,4.06-8.19,6.94s-1.81,6.4-1.18,9.66,1.69,6.51,1.52,9.81c-.22,4-2.21,7.69-2.69,11.63a16.12,16.12,0,0,0,3.86,12.32c2.31,2.7,8,7.39,12.35,5.95,1.85-.6,3.1-2.3,4.42-3.48A20.24,20.24,0,0,1,748.44,506Z" transform="translate(0 -84.74)"/><path class="cls-17" d="M736.69,513.62s-7.08-26.09,9.67-61.49" transform="translate(0 -84.74)"/><path class="cls-14" d="M687.83,502.51c-1.6-7.37,3.65-15,1.5-22.31-2.79-9.48-16.44-13.51-20.94-22.48-5.11-10.18,3.48-21.58,3.43-32.7,0-6.4-3-12.58-3.1-19s4.19-13.83,11.52-14.1c6.54-.23,11.43,5.32,13.57,10.72s2.92,11.42,6.94,15.94c5.89,6.62,17.67,8.73,21.15,16.54,3,6.65-1.71,14.15-.43,21.19,1.06,5.79,5.91,10.39,9.24,15.48,5.44,8.36,9.69,19,6.54,28.19-2.75,8.06-14,20.06-25.12,20C702.4,519.93,689.62,510.75,687.83,502.51Z" transform="translate(0 -84.74)"/><path class="cls-18" d="M713.2,518.72s.61-55.08-31.05-104.61" transform="translate(0 -84.74)"/><path class="cls-11" d="M202.45,515c-2,1-4.08,2.34-6.4,2.19a8.55,8.55,0,0,1-4.48-2,30.77,30.77,0,0,1-7.46-8c-1.5-2.36-2.8-5.08-5.54-6.33s-6.35-.63-9.4-1.47c-3.39-.93-5.75-3.58-7.56-6.25s-3.38-5.55-6.05-7.59-6.17-3.15-7.41-5.91c-1.09-2.44.25-5.36,2.63-6.95a13.45,13.45,0,0,1,8.56-1.74,46.91,46.91,0,0,1,8.69,2,30.85,30.85,0,0,0,8.78,1.54c3.48,0,7-1.1,10.38-.43s6,3,8.08,5.34,3.89,5,6.51,7c3.14,2.34,7.22,3.51,10.51,5.68a15.93,15.93,0,0,1,7,9.91c.62,3,.65,9.22-3.15,10.86-1.62.69-3.68.36-5.41.39A20,20,0,0,0,202.45,515Z" transform="translate(0 -84.74)"/><path class="cls-19" d="M215.56,512.94s-15.42-20.34-52.75-32.68" transform="translate(0 -84.74)"/><path class="cls-11" d="M223.59,512.43c1.5,1,2.94,2.22,4.79,2.32a7,7,0,0,0,3.77-1.16A25.69,25.69,0,0,0,239,508c1.46-1.73,2.82-3.75,5.13-4.49s5.09.09,7.6-.29c2.78-.42,5-2.3,6.71-4.23s3.34-4.07,5.7-5.43,5.24-1.93,6.55-4c1.16-1.82.46-4.25-1.23-5.72a10.45,10.45,0,0,0-6.54-2.16,37.7,37.7,0,0,0-7.1.75,25,25,0,0,1-7.11.4c-2.74-.34-5.38-1.51-8.13-1.29a12.52,12.52,0,0,0-7,3.46c-1.94,1.7-3.68,3.62-6,4.92-2.76,1.56-6.12,2.1-9,3.52a13.32,13.32,0,0,0-6.68,7.17c-.86,2.33-1.63,7.22,1.17,8.86,1.19.69,2.87.62,4.22.81A15.44,15.44,0,0,1,223.59,512.43Z" transform="translate(0 -84.74)"/><path class="cls-20" d="M213.5,509.59s14.63-14.63,45.57-20.92" transform="translate(0 -84.74)"/><path class="cls-5" d="M225.45,508.87c2.05-5.14-.78-11.11,1.64-16.12,3.15-6.54,14.35-8.23,19-14,7.92-9.85,4.52-16.09,3.45-24.09-1-7.37,7.87-22.08-5.21-24.27-10.24-1.7-12.53,12.68-17.94,17.2-5,4.19-13.72,4.61-17.16,9.89-5.81,8.9,5.87,6.92-10.77,25.45-13,14.48-3.37,34.91,7.45,36.24C212.9,520,223.17,514.61,225.45,508.87Z" transform="translate(0 -84.74)"/><path class="cls-21" d="M205.31,518.12s6.26-39.51,35-72.05" transform="translate(0 -84.74)"/><path class="cls-22" d="M549.28,357.44s2.31-29.85,33-50.95" transform="translate(0 -84.74)"/><path class="cls-11" d="M549.57,355.34s7.44-5.63,8.69-3.11C559.29,354.32,549.57,355.34,549.57,355.34Z" transform="translate(0 -84.74)"/><path class="cls-11" d="M550.14,352.35s-4.31-7.72-6.59-5.83C541.66,348.08,550.14,352.35,550.14,352.35Z" transform="translate(0 -84.74)"/><path class="cls-11" d="M552.87,343.52s-2.68-8.27-5.31-6.76C545.38,338,552.87,343.52,552.87,343.52Z" transform="translate(0 -84.74)"/><path class="cls-11" d="M556.47,335.58S555.89,327,553,328C550.52,328.79,556.47,335.58,556.47,335.58Z" transform="translate(0 -84.74)"/><path class="cls-5" d="M560.82,328s.24-8.59-2.78-7.82C555.54,320.81,560.82,328,560.82,328Z" transform="translate(0 -84.74)"/><path class="cls-5" d="M565.37,322.21s2.09-8.4-1-8.15C561.74,314.27,565.37,322.21,565.37,322.21Z" transform="translate(0 -84.74)"/><path class="cls-5" d="M570.44,316.27s2.09-8.4-1-8.15C566.8,308.33,570.44,316.27,570.44,316.27Z" transform="translate(0 -84.74)"/><path class="cls-5" d="M575.06,312.29s3.16-8.14,0-8.2C572.47,304.05,575.06,312.29,575.06,312.29Z" transform="translate(0 -84.74)"/><path class="cls-11" d="M551.17,348.2s6.07-6.76,7.85-4.5C560.49,345.58,551.17,348.2,551.17,348.2Z" transform="translate(0 -84.74)"/><path class="cls-5" d="M554.2,339.63s6.55-6.41,8.16-4.05C563.69,337.53,554.2,339.63,554.2,339.63Z" transform="translate(0 -84.74)"/><path class="cls-5" d="M557.6,332.81s6.55-6.41,8.16-4.05C567.09,330.72,557.6,332.81,557.6,332.81Z" transform="translate(0 -84.74)"/><path class="cls-5" d="M562.36,326s7.76-5.29,8.86-2.71C572.13,325.37,562.36,326,562.36,326Z" transform="translate(0 -84.74)"/><path class="cls-5" d="M567,319.87s8.09-4.9,9-2.28C576.78,319.76,567,319.87,567,319.87Z" transform="translate(0 -84.74)"/><path class="cls-5" d="M572.19,314.65s8.87-3.72,9.31-1C581.87,315.9,572.19,314.65,572.19,314.65Z" transform="translate(0 -84.74)"/><path class="cls-5" d="M576.85,310.34s8.87-3.73,9.32-1C586.54,311.58,576.85,310.34,576.85,310.34Z" transform="translate(0 -84.74)"/><path class="cls-5" d="M581.4,307.1s6.18-6.69,7.92-4.4C590.76,304.59,581.4,307.1,581.4,307.1Z" transform="translate(0 -84.74)"/><path class="cls-23" d="M546.45,367.44c1.21.57,2.41,1.38,3.78,1.3a5.05,5.05,0,0,0,2.64-1.18,17.81,17.81,0,0,0,4.41-4.73c.89-1.4,1.66-3,3.27-3.74s3.75-.37,5.56-.87a8.34,8.34,0,0,0,4.46-3.68,17.2,17.2,0,0,1,3.58-4.49c1.51-1.15,3.64-1.86,4.37-3.49a3.46,3.46,0,0,0-1.56-4.11,8,8,0,0,0-5.05-1,28,28,0,0,0-5.13,1.17,18.67,18.67,0,0,1-5.19.91c-2.05,0-4.12-.66-6.12-.26a8.93,8.93,0,0,0-4.78,3.15,25.84,25.84,0,0,1-3.84,4.13c-1.86,1.38-4.27,2.07-6.21,3.36a9.39,9.39,0,0,0-4.11,5.85c-.36,1.78-.38,5.45,1.87,6.41a8.51,8.51,0,0,0,3.19.23A11.81,11.81,0,0,1,546.45,367.44Z" transform="translate(0 -84.74)"/><path class="cls-24" d="M538.71,366.22s9.11-12,31.15-19.3" transform="translate(0 -84.74)"/><path class="cls-11" d="M528.26,367.77a6.69,6.69,0,0,1-3.18.5,3.75,3.75,0,0,1-1.86-1.28,13.31,13.31,0,0,1-2.6-4.29c-.44-1.2-.76-2.56-1.89-3.36s-2.86-.79-4.18-1.42a6.1,6.1,0,0,1-2.83-3.49,13.07,13.07,0,0,0-2-4c-1-1.1-2.51-1.95-2.79-3.32a2.88,2.88,0,0,1,1.94-3A6.48,6.48,0,0,1,513,344a21.52,21.52,0,0,1,3.8,1.6,14.31,14.31,0,0,0,3.88,1.41c1.61.26,3.34.05,4.83.63a6.54,6.54,0,0,1,3.17,3.1,18.93,18.93,0,0,0,2.27,3.75c1.2,1.33,3,2.19,4.25,3.46a7,7,0,0,1,2.17,5.12c0,1.44-.67,4.3-2.59,4.75a6.84,6.84,0,0,1-2.54-.25A9.71,9.71,0,0,0,528.26,367.77Z" transform="translate(0 -84.74)"/><path class="cls-25" d="M534.52,367.86s-5-10.61-20.9-19.28" transform="translate(0 -84.74)"/><path class="cls-26" d="M548.54,361c.68-3.15-1.56-6.43-.64-9.54,1.19-4.05,7-5.78,9-9.61,2.19-4.36-1.49-9.23-1.46-14,0-2.74,1.26-5.38,1.32-8.12s-1.79-5.91-4.92-6c-2.8-.11-4.89,2.27-5.81,4.58s-1.25,4.88-3,6.81c-2.52,2.84-7.56,3.74-9,7.08-1.27,2.84.73,6.05.18,9.06-.45,2.48-2.53,4.45-3.95,6.62a13.75,13.75,0,0,0-1.56,11.93c1.18,3.45,4.75,8.71,9.51,8.68C542.31,368.42,547.77,364.49,548.54,361Z" transform="translate(0 -84.74)"/><path class="cls-27" d="M537.69,367.9s-.26-23.56,13.28-44.74" transform="translate(0 -84.74)"/><polygon class="cls-28" points="546.38 281.14 543.3 294.87 531.94 294.87 528.86 281.14 546.38 281.14"/><polygon class="cls-5" points="542.74 281.14 539.66 294.87 530.71 294.87 527.63 281.14 542.74 281.14"/></g><path class="cls-29" d="M678.63,377.61a96.77,96.77,0,0,1-19,.48s-1.8-1.95,2.92-2.92c.68-.14,1.34-.27,2-.42h0c3.77-.83,6.67-1.75,8.06-3.78l1.32-.13,3.57-.36C678.94,375.84,681.13,377.14,678.63,377.61Z" transform="translate(0 -84.74)"/><path class="cls-30" d="M675.53,372.15a11.29,11.29,0,0,1-11,2.6c3.77-.83,6.67-1.75,8.06-3.78l1.32-.13Z" transform="translate(0 -84.74)"/><path class="cls-29" d="M694.9,371.28s1.34.7,1.89,4.66c.2,1.48-1.73,2.09-4.21,2.09-1.58,0-4-.12-4.34-.67,0,0-2.39-1,1.44-6.05Z" transform="translate(0 -84.74)"/><path class="cls-30" d="M690.31,370.21s-1.32,3.59-.75,4.12,4,.72,5,.13c.73-.44-.23-4.08-.23-4.08Z" transform="translate(0 -84.74)"/><path class="cls-31" d="M697.14,372.15h-9.46l-6.79-63.25-1.58,63.25h-9.63c-3.12-81.06-1.77-88.08-1.77-88.08l26.07.52,2,0Z" transform="translate(0 -84.74)"/><polygon class="cls-32" points="680.89 224.16 675.95 210.83 680.66 229.86 680.89 224.16"/><path class="cls-32" d="M697.14,372.15h-1.68c-.8-29.25-3.24-84.87-3.24-84.87l1.76-2.69,2,0Z" transform="translate(0 -84.74)"/><path class="cls-32" d="M698.27,243.31c0-3.14-8.34-3.57-7-8.27,1-3.71,3.47-4.85,2-9.22-1-2.89-5.45-7.8-9.58-8.88-6.22-1.64-11.63,2.34-13.74,9.93s6.24,9.51,1.33,18S698.22,257.89,698.27,243.31Z" transform="translate(0 -84.74)"/><path class="cls-30" d="M664.08,250.88,656.22,255s-13.51-8.61-15.34-10.07c0,0-1.9-3.08-2.11-3.65a13.78,13.78,0,0,1-1-3.12v-.83a1.34,1.34,0,0,0-1.2,1.27,11.34,11.34,0,0,0,.41,2.76h-5.17c-.8,0-1.34.59-.55,1.42,0,0-.29,1,.56,1.3,0,0-.2,1,.62,1.08,0,0-.2,1,1.41,1.07a13.06,13.06,0,0,1,2.52.77,11.1,11.1,0,0,1,2.6.92c2.39,1.41,13.71,13.67,16.18,14.44,2.67.84,12.46-5.88,12.46-5.88Z" transform="translate(0 -84.74)"/><path class="cls-33" d="M678,245.33a8.56,8.56,0,0,1-4.26,10c-3.55,2-11.81,5.55-11.81,5.55l-4.13-8.12s6.77-4.25,9.78-6.06c1.76-1.06,4.62-3.18,8-3.77C677.76,242.61,677.1,244,678,245.33Z" transform="translate(0 -84.74)"/><path class="cls-29" d="M694.26,280.88c1.8,3.9,1,5.64-2,6.4a38.06,38.06,0,0,1-8.54.55c-8.75-.07-14.62-.94-15.28-1.9-1.32-1.9.39-4.21.68-8.54.38-5.66,2.13-9.34.13-12.36-3.75-5.65-1.05-9.76-.25-14.08s0-5.64,3.67-7.33c5.56-2.59,7.41-2.19,7.41-2.19,7.59-.28,14,2.92,15,3.95.27.28.24,1.8.05,4.08C694.42,257.62,691.78,275.51,694.26,280.88Z" transform="translate(0 -84.74)"/><path class="cls-33" d="M692.22,287.28c-2.23-22,.56-34.47.56-34.47s1-1.48,2.3-3.35c-.66,8.16-3.3,26-.82,31.42C696.06,284.78,695.21,286.52,692.22,287.28Z" transform="translate(0 -84.74)"/><path class="cls-30" d="M672.09,223s-1.4,14.13,4.22,16.73c4.07,1.88,8.73-2.28,9.42-6.43.48-2.93,1.08-8.39-1.72-10.18S674.2,218.57,672.09,223Z" transform="translate(0 -84.74)"/><path class="cls-30" d="M685.73,230.13s1.18-1.29,2.11-.22c1.09,1.26-.64,3.58-2.24,3.88Z" transform="translate(0 -84.74)"/><path class="cls-32" d="M686.14,229.79a10.23,10.23,0,0,0-7-3.59c-6.33-.75-10.63-1.48-10.1-5.07.37-2.53,7.54-6.53,13.35-5S691.23,226,686.14,229.79Z" transform="translate(0 -84.74)"/><path class="cls-30" d="M701.67,268.39a88.85,88.85,0,0,0-1.48-11.92l-6.84-.6s2.47,10.86,2.37,13.18-2.17,15.78-2.35,17.58h0s-2,1.75-2.32,2-.5.93-.74,1.66-.55,1.72-.55,1.72a1.18,1.18,0,0,0,.91-.2,11,11,0,0,0,1-1.93,6.71,6.71,0,0,1,0,2.6c-.34.91-1.23,3.69-1.33,4.05s.53.59.8,0,1.61-3.59,1.61-3.59a22.28,22.28,0,0,1-.31,2.46c-.16.47-.59,1.55-.77,2s.21.59.48.41a10.63,10.63,0,0,0,1.06-1.93c.14-.26.8-2.46.8-2.46s-.27,2.15-.38,2.5-.71,1.89-.71,1.89a.22.22,0,0,0,.18.3c.28,0,.42-.23.67-.69s.69-1.2.75-1.38.81-2.22.81-2.22-.5,2.13-.56,2.32-.6,1.51-.35,1.59.58-.49.94-1.07a3.6,3.6,0,0,0,.75-1.69c.2-1,.51-2.35.53-2.83s.17-3.38.21-4.12l0-.31S701.89,274,701.67,268.39Z" transform="translate(0 -84.74)"/><path class="cls-29" d="M695,245.38s-4.28,5.82-1.46,19.85a8,8,0,0,0,8.48-2.12S700.42,251.19,695,245.38Z" transform="translate(0 -84.74)"/><path class="cls-30" d="M677.33,147.2h8.27a0,0,0,0,1,0,0V157a3.63,3.63,0,0,1-3.63,3.63h-1a3.63,3.63,0,0,1-3.63-3.63v-9.8A0,0,0,0,1,677.33,147.2Z"/><path class="cls-34" d="M677.33,240.48s4.77,1.75,8.27-4l.13-3.57-8.4,2.7Z" transform="translate(0 -84.74)"/><path class="cls-30" d="M688,242.39s-1.28,3.25-9.8,8c0,0-4-3.17-2.84-7.92A17.77,17.77,0,0,1,688,242.39Z" transform="translate(0 -84.74)"/><path class="cls-35" d="M679.56,229.2a2.38,2.38,0,0,1,2.79.55" transform="translate(0 -84.74)"/><path class="cls-35" d="M672.86,229.11a2.42,2.42,0,0,1,2.84-.28" transform="translate(0 -84.74)"/><path class="cls-32" d="M674.81,230.81a.51.51,0,1,1-1-.08.51.51,0,0,1,1,.08Z" transform="translate(0 -84.74)"/><path class="cls-32" d="M680.72,231.32a.52.52,0,0,1-1-.09.52.52,0,1,1,1,.09Z" transform="translate(0 -84.74)"/><path class="cls-36" d="M677.2,230.71s-.2,2-1.18,2.72.59,1.43.59,1.43" transform="translate(0 -84.74)"/><path class="cls-36" d="M677.82,236.32A2,2,0,0,0,680,236" transform="translate(0 -84.74)"/><path class="cls-37" d="M684,231.79s-1.7,2.1-6,.39c-.61-.24-1.25-.91-2.47-.24a6.15,6.15,0,0,1-3.13.43s.52,6.7,4.51,7.78c2.55.7,5.43-.78,7.47-3.68C683.11,235.34,683.35,233.09,684,231.79Z" transform="translate(0 -84.74)"/><path class="cls-38" d="M685.69,233.77a8.55,8.55,0,0,1-1.63,2.81" transform="translate(0 -84.74)"/><path class="cls-38" d="M686.14,229.67a8.9,8.9,0,0,0-2.46,2.7" transform="translate(0 -84.74)"/><ellipse class="cls-39" cx="539.76" cy="329.72" rx="34.68" ry="3"/><path class="cls-30" d="M567.51,284.66s2.37-.72,3-.82a9.84,9.84,0,0,0,2.78-.57,17.3,17.3,0,0,0,2.19-1.85,1,1,0,0,1,.38,1c-.16.56-.88.87-1.13,1.54s.87,1,1.54,1a10,10,0,0,1,2.42.67,12.59,12.59,0,0,0,3.75-.57c1.19-.31.21,1.39-1,1.54a5.51,5.51,0,0,0-2.77.83,7,7,0,0,1-4.79.41c-1.33-.57-5.91.61-5.91.61Z" transform="translate(0 -84.74)"/><path class="cls-40" d="M546.78,263.49c4.71-1.47,5.15,2,7.8,9.95s2.54,9,2.54,9l14.58.65-.48,5.35s-11.5,0-15.32.41-8.54-5.4-10-14.66S546.78,263.49,546.78,263.49Z" transform="translate(0 -84.74)"/><path class="cls-41" d="M520,408.92s-1.17,0-1.73,6.08c-.15,1.59,2.38,1.37,5,1.37,1.68,0,4.39,0,4.76-.59,0,0,1.61-1.43-2.49-6.83Z" transform="translate(0 -84.74)"/><path class="cls-41" d="M540.56,407.39c-1.61,5.73-4,7.12-1.29,7.61a102.63,102.63,0,0,0,20.37.52s1.92-2.08-3.12-3.12-9-1.95-10.73-4.49Z" transform="translate(0 -84.74)"/><path class="cls-42" d="M552.65,316.31s-2.19,51.52-5.25,92.86h-7.87l-1.47-69.1-10.46,69.1h-9.39l0-.53,2.63-93,1.9,0Z" transform="translate(0 -84.74)"/><polygon class="cls-31" points="538.06 255.33 541.31 245.13 538.25 264.09 538.06 255.33"/><polygon class="cls-31" points="526.57 235.04 521.45 324.18 518.24 323.9 520.87 230.88 522.76 230.92 526.57 235.04"/><path class="cls-43" d="M578.27,261a.49.49,0,0,1-.48-.49v-5.69a4,4,0,0,0-3.95-3.95h-2.55a4,4,0,0,0-3.95,3.95v5.69a.49.49,0,0,1-.49.49.48.48,0,0,1-.48-.49v-5.69a4.93,4.93,0,0,1,4.92-4.93h2.55a4.93,4.93,0,0,1,4.92,4.93v5.69A.49.49,0,0,1,578.27,261Z" transform="translate(0 -84.74)"/><path class="cls-44" d="M584.43,286.47h-21.7a3.21,3.21,0,0,1-3.2-3.42l1.72-26.23h24.67l1.72,26.23A3.21,3.21,0,0,1,584.43,286.47Z" transform="translate(0 -84.74)"/><path class="cls-43" d="M565.79,256.82l-1,29.65h-2.07a3.21,3.21,0,0,1-3.2-3.42l1.72-26.23Z" transform="translate(0 -84.74)"/><path class="cls-44" d="M582.25,261a.49.49,0,0,1-.48-.49v-5.69a4,4,0,0,0-3.95-3.95h-2.55a4,4,0,0,0-3.95,3.95v5.69a.49.49,0,0,1-.49.49.48.48,0,0,1-.48-.49v-5.69a4.93,4.93,0,0,1,4.92-4.93h2.55a4.93,4.93,0,0,1,4.92,4.93v5.69A.49.49,0,0,1,582.25,261Z" transform="translate(0 -84.74)"/><path class="cls-45" d="M574.94,266.72c0,1.75-1.09,3.17-2.43,3.17s-2.43-1.42-2.43-3.17,1.09-3.18,2.43-3.18S574.94,265,574.94,266.72Z" transform="translate(0 -84.74)"/><rect class="cls-45" x="572.2" y="185.15" width="0.63" height="8.7"/><rect class="cls-45" x="579.29" y="185.15" width="0.63" height="8.7"/><path class="cls-45" d="M580.94,264.3v3.19a.44.44,0,0,1-.44.44h0a.45.45,0,0,1-.45-.44V264.3a.45.45,0,0,0-.45-.44h0a.44.44,0,0,0-.44.44v3.19a.45.45,0,0,1-.45.44h0a.45.45,0,0,1-.45-.44V264.3a.44.44,0,0,0-.44-.44h0a.45.45,0,0,0-.45.44v3.23a2.32,2.32,0,0,0,2.11,2.36,2.24,2.24,0,0,0,2.36-2.23V264.3a.45.45,0,0,0-.45-.44h0A.45.45,0,0,0,580.94,264.3Z" transform="translate(0 -84.74)"/><path class="cls-46" d="M553,286.47v31.77a78.73,78.73,0,0,1-26.4,1.54c-2.08-.2-4.25-.49-6.47-.89l.72-49.26.05-3.78c0-2.74,9-5.37,15.83-5.7a46.25,46.25,0,0,1,12.61,3C555,265.53,553,277.65,553,286.47Z" transform="translate(0 -84.74)"/><path class="cls-47" d="M550.83,282.94l-.54.31a1.6,1.6,0,0,1-1.18.13l-1.72-.51a1.09,1.09,0,0,1-.86-1v-5.44h4.86v5.64A1,1,0,0,1,550.83,282.94Z" transform="translate(0 -84.74)"/><circle class="cls-47" cx="539.11" cy="183.44" r="0.59"/><circle class="cls-47" cx="539.11" cy="187.21" r="0.59"/><circle class="cls-47" cx="539.11" cy="190.98" r="0.59"/><path class="cls-48" d="M528.32,282.15l-1.76,37.63c-2.08-.2-4.25-.49-6.47-.89l.72-49.26Z" transform="translate(0 -84.74)"/><path class="cls-30" d="M555.05,285.62s2.53-.77,3.2-.88a10.21,10.21,0,0,0,3-.61,18,18,0,0,0,2.35-2,1.08,1.08,0,0,1,.41,1.05c-.16.61-.94.94-1.21,1.66s.94,1.1,1.65,1a12,12,0,0,1,2.6.72,13,13,0,0,0,4-.61c1.27-.33.22,1.49-1,1.66a5.91,5.91,0,0,0-3,.88,7.41,7.41,0,0,1-5.13.44c-1.44-.6-6.35.67-6.35.67Z" transform="translate(0 -84.74)"/><path class="cls-47" d="M521.52,264.54c4.71-1.47,5.75,2.23,8.4,10.17a130.68,130.68,0,0,0,5,13l21.71-3.24,1,5.37s-20.47,6.84-24.3,7.28-12.94-11.47-14.41-20.74S521.52,264.54,521.52,264.54Z" transform="translate(0 -84.74)"/><path class="cls-47" d="M551.68,241.06s-2.6,2.05-7.15-.83C544.53,240.23,546.89,238.9,551.68,241.06Z" transform="translate(0 -84.74)"/><path class="cls-49" d="M533.48,239.58s-5.07-.81-5.61,3.7c-.09.79.48,1.31.69,2.22,1,4.32,4.38,10,7,12.1C535.59,257.6,537.5,242.2,533.48,239.58Z" transform="translate(0 -84.74)"/><path class="cls-49" d="M546.4,246.15s3.5-1.73,2.3-4.55-8.13-.54-6.86,2S546.4,246.15,546.4,246.15Z" transform="translate(0 -84.74)"/><path class="cls-30" d="M538.05,263.54c2.29,0,4.15-.57,4.15-2.87V250h-8.84v10.66C533.36,263,538.05,263.54,538.05,263.54Z" transform="translate(0 -84.74)"/><path class="cls-34" d="M542.2,259.33s-5.1.9-8.84-5.29l-.13-3.66,9,2.89Z" transform="translate(0 -84.74)"/><path class="cls-30" d="M548.09,239.49s1.71,17.28-4.33,19.28c-4.27,1.41-9.29-3-10.46-7.32-.82-3.06-2-8.81.76-11S545.38,235,548.09,239.49Z" transform="translate(0 -84.74)"/><path class="cls-30" d="M532.91,247.59s-1.28-1.48-2.3-.36c-.72.8,1.09,4.09,2.82,4.24Z" transform="translate(0 -84.74)"/><path class="cls-49" d="M533.26,247.87a3.29,3.29,0,0,1,1.48-2.52c1.77-1,2-3.29,1.27-5.26,0,0-4-2-5.13.15S531.52,246.91,533.26,247.87Z" transform="translate(0 -84.74)"/><path class="cls-50" d="M541.16,245.51a2.57,2.57,0,0,0-3,.63" transform="translate(0 -84.74)"/><path class="cls-50" d="M547.86,244.82a2.28,2.28,0,0,0-3,.27" transform="translate(0 -84.74)"/><path class="cls-32" d="M546,247a.55.55,0,0,0,.6.5.56.56,0,0,0,.5-.61.55.55,0,0,0-1.1.11Z" transform="translate(0 -84.74)"/><path class="cls-32" d="M539.76,247.61a.55.55,0,1,0,.5-.6A.55.55,0,0,0,539.76,247.61Z" transform="translate(0 -84.74)"/><path class="cls-51" d="M544.25,247.32s.23,2.13,1.29,2.9-.61,1.53-.61,1.53" transform="translate(0 -84.74)"/><path class="cls-51" d="M543.59,254.12a2.51,2.51,0,0,1-2.67-.39" transform="translate(0 -84.74)"/><path class="cls-46" d="M533.46,241.32s3.54,3.48,6.11,2.42,4-3.57,7.93-3.51a16.49,16.49,0,0,1,4.18.83,18.93,18.93,0,0,0-3.83-2.5S542.33,233,533.46,241.32Z" transform="translate(0 -84.74)"/><path class="cls-47" d="M528.7,246.09a13.27,13.27,0,0,1,5.65-4c4.81-5.26,10-4.91,13.5-3.53,0,0,.19-2.27-2.91-5.14-2.06-1.91-7.26-2-11.29-.33a11.7,11.7,0,0,0-6,5.95C526.26,242.6,528.7,246.09,528.7,246.09Z" transform="translate(0 -84.74)"/><path class="cls-37" d="M535.63,250.58s2.07,1.33,6.7-1.05a2.5,2.5,0,0,1,2.88,0,3.23,3.23,0,0,0,2.87.12s-.32,8.13-3.72,9.21c-2.81.89-6,0-8.59-3C537,254.42,535.73,252,535.63,250.58Z" transform="translate(0 -84.74)"/><path class="cls-52" d="M533.3,251.45a12.22,12.22,0,0,0,2.77,4.45" transform="translate(0 -84.74)"/><path class="cls-52" d="M532.43,247.17a11.28,11.28,0,0,1,3.6,4" transform="translate(0 -84.74)"/><path class="cls-47" d="M533.36,259.43s2.18,3.57,5.54,4c0,0-1,3.77-2.87,3.27-2.33-.61-3.71-6.1-3.71-6.1Z" transform="translate(0 -84.74)"/><path class="cls-47" d="M538.9,263.45s1.77-.31,3.3-3.47l.47,1.09s.28,3.94-1,5.13S538.9,263.45,538.9,263.45Z" transform="translate(0 -84.74)"/><ellipse class="cls-39" cx="448.21" cy="343.15" rx="91.33" ry="3"/><path class="cls-32" d="M403.82,392.16a21.33,21.33,0,1,0,.46,30.16A21.33,21.33,0,0,0,403.82,392.16ZM377,406.71a12,12,0,0,1,7.46-10.35,11,11,0,0,1,1.56-.52,12,12,0,0,1,11,2.71,11.24,11.24,0,0,1,1.49,1.66,11.24,11.24,0,0,0-1.49-1.66l-6.66,6.66a2.66,2.66,0,0,0-1.54-.38l-2.8-9a11,11,0,0,0-1.56.52,11.92,11.92,0,0,0-1.48.72l4.28,8.39a2.74,2.74,0,0,0-.84,1.35l-9.42-.11c0,.27,0,.54,0,.81C377,407.25,377,407,377,406.71Zm7.56,11.92a12,12,0,0,1-6.69-6.63,11.82,11.82,0,0,1-.62-2,11.38,11.38,0,0,1-.24-1.64,11.38,11.38,0,0,0,.24,1.64l9.29-1.47a2.61,2.61,0,0,0,1,1.21l-3,8.92a12.31,12.31,0,0,0,1.56.5A12.31,12.31,0,0,1,384.54,418.63Zm9,0a11.91,11.91,0,0,1-5.79.82l1.47-9.3a2.45,2.45,0,0,0,.79-.18,2.55,2.55,0,0,0,.69-.42l7.55,5.62a12.22,12.22,0,0,0,1.32-2,12.22,12.22,0,0,1-1.32,2A11.93,11.93,0,0,1,393.5,418.59Zm6.43-6.24h0l-8.38-4.27a2.65,2.65,0,0,0-.12-1.59l7.68-5.43h0a11.49,11.49,0,0,1,1,1.88A12,12,0,0,1,399.93,412.35Z" transform="translate(0 -84.74)"/><path class="cls-31" d="M369.63,384.52l-7.74,15.79s.88,1,2.21-.59c0,0,2.21.15,4.87-3.61s7-8.73,7-8.73Z" transform="translate(0 -84.74)"/><path class="cls-32" d="M435.58,398.44l-2.16,13.76a2.65,2.65,0,0,1-.11.28c-.32.68-1.53,2.46-5.7,3.08-5.21.79-9.61,2-13.51.55l-.71-1.53-4.21-10.23,6.1-10.82Z" transform="translate(0 -84.74)"/><circle class="cls-31" cx="417.18" cy="403.83" r="8.36" transform="translate(-71.43 632.74) rotate(-76.77)"/><path class="cls-32" d="M422.26,403.83a5.08,5.08,0,1,1-5.08-5.08A5.07,5.07,0,0,1,422.26,403.83Z" transform="translate(0 -84.74)"/><path class="cls-31" d="M433.31,412.48c-.32.68-1.53,2.46-5.7,3.08-5.21.79-9.61,2-13.51.55l-.71-1.53,1.37-.12a9.61,9.61,0,0,0,3.55.51c2-.09,10.29-1.42,10.92-1.57a4.47,4.47,0,0,0,2.53-2Z" transform="translate(0 -84.74)"/><path class="cls-31" d="M408.26,418.41,377.65,410a5.24,5.24,0,0,1-3.66-6.44h0a5.24,5.24,0,0,1,6.44-3.66l30.6,8.41a5.24,5.24,0,0,1,3.66,6.44h0A5.23,5.23,0,0,1,408.26,418.41Z" transform="translate(0 -84.74)"/><path class="cls-32" d="M513.2,386.15a21.33,21.33,0,1,0,21.33,21.32A21.31,21.31,0,0,0,513.2,386.15Zm6.29,11.09A12,12,0,0,1,525.2,407l-9.42-.15a2.57,2.57,0,0,0-.8-1.36l4.51-8.28a11.85,11.85,0,0,0-1.46-.76A11.85,11.85,0,0,1,519.49,397.24Zm-17.37,14.82a12,12,0,0,1,14.37-16.13c.26.07.51.15.77.24-.26-.09-.51-.17-.77-.24l-3,8.91a2.68,2.68,0,0,0-1.55.33l-6.48-6.84a11.89,11.89,0,0,0-2.17,2.46l7.52,5.64a2.65,2.65,0,0,0-.15,1.59l-8.49,4a10,10,0,0,0,.72,1.47A10,10,0,0,1,502.12,412.06Zm6.26,6.4a11.87,11.87,0,0,1-4.62-3.58l7.7-5.42a2.68,2.68,0,0,0,.68.45,2.62,2.62,0,0,0,.78.19l1.22,9.34a13.33,13.33,0,0,0,2.08-.37,13.33,13.33,0,0,1-2.08.37A11.88,11.88,0,0,1,508.38,418.46Zm15.81-6.16a12,12,0,0,1-6.86,6.44h0l-2.77-9a2.62,2.62,0,0,0,1.06-1.19l9.25,1.72A11.71,11.71,0,0,1,524.19,412.3Zm.85-2.83a11.25,11.25,0,0,0,.16-1.63A11.25,11.25,0,0,1,525,409.47Z" transform="translate(0 -84.74)"/><path class="cls-47" d="M527.78,390.2h0a17.92,17.92,0,0,1-3.83-.22c-5.32-.69-15.65-2.55-24.7,6s-12.69,5.51-12.69,5.51,3.37-12.59,10.1-20.4c2.89-3.35,6.39-5.82,10.5-6.06,0,0,13.44.48,21.71,14.65C528.86,389.69,529,390.08,527.78,390.2Z" transform="translate(0 -84.74)"/><path class="cls-53" d="M527.78,390.2h0s-10.09-15.83-31.12-9.1c2.89-3.35,6.39-5.82,10.5-6.06,0,0,13.44.48,21.71,14.65C528.86,389.69,529,390.08,527.78,390.2Z" transform="translate(0 -84.74)"/><path class="cls-49" d="M382.62,365.59l-1,5.69-11.46,4.78a4.14,4.14,0,0,1-.5-1.1,4.25,4.25,0,0,1-.22-.85c-.11-.73,3.69-5.15,4.21-6.78s-.29-1.7,2.21-2.29a10.11,10.11,0,0,1,3-.11A25.66,25.66,0,0,1,382.62,365.59Z" transform="translate(0 -84.74)"/><path class="cls-54" d="M378.87,364.93a6.3,6.3,0,0,0-2,2.14c-.62,1.18-5.68,6.3-7.27,7.89a4.25,4.25,0,0,1-.22-.85c-.11-.73,3.69-5.15,4.21-6.78s-.29-1.7,2.21-2.29A10.11,10.11,0,0,1,378.87,364.93Z" transform="translate(0 -84.74)"/><path class="cls-47" d="M507.26,374.34c-.15,3.84-6.2,2.36-12,17.12s-18.74,19.78-21.1,20.81-15.09-1.48-21.05,0S439.51,416,434.2,413s-10-9.3-10.48-13.29c0,0-33.06-3.83-57.85-17.12,0,0-.55-.46.64-2.32h0c1.23-1.93,4.34-5.4,11.89-11.44,6.4-5.12,17-12.35,17-12.35s41.17,6,50.47,11.25a7,7,0,0,1-1.18,6.31c-2.36,3.4-4.87,10.78.15,14.76s17.12,10.48,30.11,3.84c3.22-1.65,7.86-13.38,7.86-21.65,0-5.61-6-20.39-10.14-30.1-2-4.59-3.51-8-3.82-8.86-1-2.56,8.85-9.84,10.62-10.82,1.21-.68,6.32.44,9.75,1.44a17,17,0,0,1,3.14,1.11c1,.69-.88,1.87-2.26,5.61s-.59,5-2.36,5.52c-.35.09-.78.22-1.25.36-1.67.51-3.83,1.21-4.35,1.37h-.08l0,0s9.94,8.06,15.94,19S507.41,370.5,507.26,374.34Z" transform="translate(0 -84.74)"/><path class="cls-46" d="M433.31,384.82c-.59,13.58-9.59,14.9-9.59,14.9s-33.06-3.83-57.85-17.12c0,0-.54-.46.64-2.32h0c14.07-14,30.79-16.15,42.3-15.4C420.82,365.66,433.91,371.24,433.31,384.82Z" transform="translate(0 -84.74)"/><path class="cls-46" d="M507.26,374.34c-.15,3.84-6.2,2.36-11.95,17.12s-18.75,19.78-21.11,20.81-15.09-1.48-21.05,0S439.52,416,434.2,413s-10-9.3-10.48-13.29c0,0,33.06,6.06,38.08,6.79s12.7,2.81,17.71-1.77,13.14-17.41,15.35-22.73,5-6.93,1.92-12.84-11.81-21.3-14.46-25.33-.3-7.18-.3-7.18,9.94,8.06,15.94,19S507.41,370.5,507.26,374.34Z" transform="translate(0 -84.74)"/><path class="cls-46" d="M490.09,329.37c-1.38,3.74-.59,5-2.36,5.52-.35.09-.78.22-1.25.36-1.67.51-3.83,1.21-4.35,1.37h-.08l0,0c-1.91.61-9.36,4.23-9.36,4.23-2-4.59-3.51-8-3.82-8.86-1-2.56,8.85-9.84,10.62-10.82,1.21-.68,6.32.44,9.75,1.44a17,17,0,0,1,3.14,1.11C493.34,324.45,491.47,325.63,490.09,329.37Z" transform="translate(0 -84.74)"/><path class="cls-47" d="M490.09,329.37c-1.38,3.74-.59,5-2.36,5.52-.35.09-.78.22-1.25.36a114.81,114.81,0,0,0,2.69-12.35c0-.16,0-.25,0-.25a16.65,16.65,0,0,1,3.14,1.11C493.34,324.45,491.47,325.63,490.09,329.37Z" transform="translate(0 -84.74)"/><path class="cls-49" d="M469.62,331.39a2.07,2.07,0,1,1-2.06-2.07A2.06,2.06,0,0,1,469.62,331.39Z" transform="translate(0 -84.74)"/><path class="cls-49" d="M474.08,330.67a2.39,2.39,0,1,1-2.39-2.39A2.39,2.39,0,0,1,474.08,330.67Z" transform="translate(0 -84.74)"/><path class="cls-49" d="M468.61,332.42c7.33,1,12.28.74,12.28-.34s-2.38-1.77-4.51-2.76c-1.47-.68-5.48-.65-5.48-.65l-2.63.78Z" transform="translate(0 -84.74)"/><path class="cls-49" d="M476.06,330.1l-.58-.13,1.17-5.33a3,3,0,0,0-.14-1.76L473.09,314l.55-.22,3.42,8.89a3.58,3.58,0,0,1,.16,2.1Z" transform="translate(0 -84.74)"/><path class="cls-49" d="M470.51,306.45s3.05,1.77,4.07,3.69,1.46,3.47-1,5.61-3.55,1.1-3.92.88S468.37,308.15,470.51,306.45Z" transform="translate(0 -84.74)"/><path class="cls-32" d="M454.07,368.3c0,.1-.06.2-.1.3h0c-1,3.14-3.4,6.07-5.45,5a155.9,155.9,0,0,0-24.5-9.15c-9.89-2.66-36.61-5.17-36.61-5.17a6.44,6.44,0,0,1-.06-4.52.61.61,0,0,1,.07-.17,4,4,0,0,1,1.55-1.65c3.32-2.07,8.21-2.79,10.57-3.08s15.73,2,22.84,3.07a87.52,87.52,0,0,0,18.61.89c6.94-.29,12.11,6.79,13.29,10.34A7.27,7.27,0,0,1,454.07,368.3Z" transform="translate(0 -84.74)"/><path class="cls-31" d="M454.07,368.3c-.1-5.69-3.08-7.45-7.17-10.54-4.46-3.38-10.73-1.81-22.3-.82s-17.35-3.65-21-4.73c-3.24-1-14.05,1.92-16.28,2.55a.61.61,0,0,1,.07-.17,4,4,0,0,1,1.55-1.65c3.32-2.07,8.21-2.79,10.57-3.08s15.73,2,22.84,3.07a87.52,87.52,0,0,0,18.61.89c6.94-.29,12.11,6.79,13.29,10.34A7.27,7.27,0,0,1,454.07,368.3Z" transform="translate(0 -84.74)"/><path class="cls-31" d="M401.46,361.87h-.12l-14-1.5a1.06,1.06,0,0,1-.89-.68l-3.68-9.45a1.09,1.09,0,0,1,.62-1.41,1.08,1.08,0,0,1,1.4.62l3.44,8.84,13.38,1.42a1.09,1.09,0,0,1-.11,2.17Z" transform="translate(0 -84.74)"/><rect class="cls-46" x="380.55" y="234.23" width="30.51" height="29.83"/><rect class="cls-55" x="380.55" y="250.51" width="30.51" height="13.55"/><rect class="cls-56" x="379.91" y="234.23" width="31.8" height="4.3"/><rect class="cls-57" x="385.58" y="234.23" width="3.87" height="29.83"/><rect class="cls-57" x="402.16" y="234.23" width="3.87" height="29.83"/><path class="cls-32" d="M411.35,350.68h-31.1a.94.94,0,0,1-.93-.94h0a.94.94,0,0,1,.93-.94h31.1a.94.94,0,0,1,.94.94h0A.94.94,0,0,1,411.35,350.68Z" transform="translate(0 -84.74)"/><rect class="cls-55" x="380.55" y="238.53" width="30.51" height="0.67"/></svg>